<?xml version="1.0" encoding="UTF-8"?>
<svg width="300" height="400" viewBox="0 0 300 400" xmlns="http://www.w3.org/2000/svg">
  <!-- 背景渐变 -->
  <defs>
    <linearGradient id="bgGradient" x1="0%" y1="0%" x2="0%" y2="100%">
      <stop offset="0%" style="stop-color:#8b4513;stop-opacity:1" />
      <stop offset="50%" style="stop-color:#a0522d;stop-opacity:1" />
      <stop offset="100%" style="stop-color:#654321;stop-opacity:1" />
    </linearGradient>
    <linearGradient id="frameGradient" x1="0%" y1="0%" x2="100%" y2="100%">
      <stop offset="0%" style="stop-color:#ffd700;stop-opacity:1" />
      <stop offset="100%" style="stop-color:#b8860b;stop-opacity:1" />
    </linearGradient>
    <radialGradient id="paperGradient" cx="50%" cy="50%" r="50%">
      <stop offset="0%" style="stop-color:#faf0e6;stop-opacity:1" />
      <stop offset="100%" style="stop-color:#f5deb3;stop-opacity:1" />
    </radialGradient>
  </defs>
  
  <!-- 背景 -->
  <rect width="300" height="400" fill="url(#bgGradient)"/>
  
  <!-- 外边框 -->
  <rect x="20" y="20" width="260" height="360" fill="none" stroke="url(#frameGradient)" stroke-width="8" rx="10"/>
  <rect x="30" y="30" width="240" height="340" fill="none" stroke="url(#frameGradient)" stroke-width="2" rx="5"/>
  
  <!-- 内容区域 -->
  <rect x="50" y="50" width="200" height="300" fill="url(#paperGradient)" rx="5"/>
  
  <!-- 装饰花纹 -->
  <g fill="url(#frameGradient)" opacity="0.6">
    <!-- 顶部装饰 -->
    <g transform="translate(150, 80)">
      <circle cx="0" cy="0" r="25" fill="none" stroke="url(#frameGradient)" stroke-width="2"/>
      <polygon points="-15,-10 0,-25 15,-10 10,0 5,-5 0,0 -5,-5 -10,0"/>
    </g>
    
    <!-- 角落装饰 -->
    <g transform="translate(70, 70)">
      <path d="M0,0 Q10,0 10,10 Q0,10 0,0" fill="url(#frameGradient)"/>
    </g>
    <g transform="translate(230, 70) rotate(90)">
      <path d="M0,0 Q10,0 10,10 Q0,10 0,0" fill="url(#frameGradient)"/>
    </g>
    <g transform="translate(230, 330) rotate(180)">
      <path d="M0,0 Q10,0 10,10 Q0,10 0,0" fill="url(#frameGradient)"/>
    </g>
    <g transform="translate(70, 330) rotate(270)">
      <path d="M0,0 Q10,0 10,10 Q0,10 0,0" fill="url(#frameGradient)"/>
    </g>
  </g>
  
  <!-- 书法风格装饰 -->
  <g stroke="#8b4513" stroke-width="1" fill="none" opacity="0.4">
    <path d="M80 150 Q150 130 220 150"/>
    <path d="M80 250 Q150 270 220 250"/>
  </g>
  
  <!-- 中央图案 -->
  <g transform="translate(150, 200)">
    <!-- 羽毛笔 -->
    <g stroke="#8b4513" stroke-width="2" fill="#8b4513">
      <line x1="-20" y1="20" x2="15" y2="-15"/>
      <path d="M-20,20 Q-25,15 -20,10 Q-15,15 -20,20" opacity="0.7"/>
      <path d="M-15,15 Q-20,10 -15,5 Q-10,10 -15,15" opacity="0.5"/>
      <path d="M-10,10 Q-15,5 -10,0 Q-5,5 -10,10" opacity="0.3"/>
    </g>
    <!-- 墨水瓶 -->
    <rect x="10" y="10" width="15" height="20" fill="#2c3e50" rx="2"/>
    <rect x="12" y="8" width="11" height="4" fill="#34495e" rx="1"/>
  </g>
  
  <!-- 标题区域 -->
  <rect x="70" y="280" width="160" height="50" fill="#8b4513" opacity="0.1" rx="5"/>
  
  <!-- 标题文字 -->
  <text x="150" y="305" text-anchor="middle" fill="#8b4513" font-family="serif" font-size="22" font-weight="bold">
    古典文学
  </text>
  
  <!-- 副标题 -->
  <text x="150" y="325" text-anchor="middle" fill="#a0522d" font-family="serif" font-size="14" font-style="italic">
    Classical Literature
  </text>
</svg>
