<?xml version="1.0" encoding="UTF-8"?>
<svg width="300" height="400" viewBox="0 0 300 400" xmlns="http://www.w3.org/2000/svg">
  <!-- 背景渐变 -->
  <defs>
    <linearGradient id="bgGradient" x1="0%" y1="0%" x2="100%" y2="100%">
      <stop offset="0%" style="stop-color:#2c3e50;stop-opacity:1" />
      <stop offset="100%" style="stop-color:#3498db;stop-opacity:1" />
    </linearGradient>
    <linearGradient id="starGradient" x1="0%" y1="0%" x2="100%" y2="100%">
      <stop offset="0%" style="stop-color:#f1c40f;stop-opacity:1" />
      <stop offset="100%" style="stop-color:#e67e22;stop-opacity:1" />
    </linearGradient>
  </defs>
  
  <!-- 背景 -->
  <rect width="300" height="400" fill="url(#bgGradient)"/>
  
  <!-- 装饰星星 -->
  <g fill="url(#starGradient)" opacity="0.8">
    <polygon points="50,80 55,95 70,95 58,105 63,120 50,110 37,120 42,105 30,95 45,95" />
    <polygon points="250,120 253,128 261,128 255,133 258,141 250,136 242,141 245,133 239,128 247,128" />
    <polygon points="80,320 83,328 91,328 85,333 88,341 80,336 72,341 75,333 69,328 77,328" />
    <polygon points="220,300 223,308 231,308 225,313 228,321 220,316 212,321 215,313 209,308 217,308" />
  </g>
  
  <!-- 书本形状 -->
  <g transform="translate(75, 150)">
    <!-- 书本主体 -->
    <rect x="0" y="0" width="150" height="100" fill="#ecf0f1" stroke="#bdc3c7" stroke-width="2" rx="5"/>
    <!-- 书脊 -->
    <rect x="0" y="0" width="15" height="100" fill="#95a5a6" rx="5"/>
    <!-- 页面效果 -->
    <rect x="20" y="10" width="120" height="80" fill="#ffffff" stroke="#bdc3c7" stroke-width="1" rx="3"/>
    <line x1="25" y1="25" x2="135" y2="25" stroke="#7f8c8d" stroke-width="1"/>
    <line x1="25" y1="35" x2="135" y2="35" stroke="#7f8c8d" stroke-width="1"/>
    <line x1="25" y1="45" x2="110" y2="45" stroke="#7f8c8d" stroke-width="1"/>
    <line x1="25" y1="55" x2="125" y2="55" stroke="#7f8c8d" stroke-width="1"/>
    <line x1="25" y1="65" x2="120" y2="65" stroke="#7f8c8d" stroke-width="1"/>
    <line x1="25" y1="75" x2="100" y2="75" stroke="#7f8c8d" stroke-width="1"/>
  </g>
  
  <!-- 装饰元素 -->
  <circle cx="150" cy="310" r="8" fill="#ffffff" opacity="0.3"/>
  <circle cx="150" cy="310" r="4" fill="#ffffff" opacity="0.6"/>
  
  <!-- 装饰线条 -->
  <line x1="50" y1="350" x2="250" y2="350" stroke="#ffffff" stroke-width="1" opacity="0.5"/>
</svg>
