<?xml version="1.0" encoding="UTF-8"?>
<svg width="300" height="400" viewBox="0 0 300 400" xmlns="http://www.w3.org/2000/svg">
  <!-- 背景渐变 -->
  <defs>
    <radialGradient id="bgGradient" cx="50%" cy="30%" r="80%">
      <stop offset="0%" style="stop-color:#8e44ad;stop-opacity:1" />
      <stop offset="50%" style="stop-color:#2c3e50;stop-opacity:1" />
      <stop offset="100%" style="stop-color:#1a1a2e;stop-opacity:1" />
    </radialGradient>
    <linearGradient id="moonGradient" x1="0%" y1="0%" x2="100%" y2="100%">
      <stop offset="0%" style="stop-color:#f4f4f4;stop-opacity:1" />
      <stop offset="100%" style="stop-color:#ddd;stop-opacity:1" />
    </linearGradient>
    <linearGradient id="castleGradient" x1="0%" y1="100%" x2="0%" y2="0%">
      <stop offset="0%" style="stop-color:#34495e;stop-opacity:1" />
      <stop offset="100%" style="stop-color:#5d6d7e;stop-opacity:1" />
    </linearGradient>
  </defs>
  
  <!-- 背景 -->
  <rect width="300" height="400" fill="url(#bgGradient)"/>
  
  <!-- 月亮 -->
  <circle cx="230" cy="80" r="35" fill="url(#moonGradient)" opacity="0.9"/>
  <circle cx="225" cy="75" r="3" fill="#bbb" opacity="0.7"/>
  <circle cx="240" cy="85" r="2" fill="#bbb" opacity="0.7"/>
  <circle cx="235" cy="95" r="1.5" fill="#bbb" opacity="0.7"/>
  
  <!-- 星星 -->
  <g fill="#ffffff" opacity="0.8">
    <circle cx="50" cy="60" r="1"/>
    <circle cx="80" cy="45" r="1.5"/>
    <circle cx="120" cy="70" r="1"/>
    <circle cx="180" cy="50" r="1"/>
    <circle cx="90" cy="90" r="1.5"/>
    <circle cx="260" cy="120" r="1"/>
    <circle cx="40" cy="110" r="1"/>
    <circle cx="270" cy="160" r="1.5"/>
  </g>
  
  <!-- 城堡轮廓 -->
  <g fill="url(#castleGradient)" stroke="#2c3e50" stroke-width="1">
    <!-- 主塔 -->
    <rect x="120" y="250" width="60" height="80" rx="5"/>
    <!-- 左塔 -->
    <rect x="80" y="270" width="40" height="60" rx="3"/>
    <!-- 右塔 -->
    <rect x="180" y="270" width="40" height="60" rx="3"/>
    <!-- 塔顶 -->
    <polygon points="140,250 150,230 160,250"/>
    <polygon points="90,270 100,255 110,270"/>
    <polygon points="190,270 200,255 210,270"/>
  </g>
  
  <!-- 城堡细节 -->
  <g fill="#f39c12" opacity="0.8">
    <!-- 窗户 -->
    <rect x="135" y="280" width="8" height="12" rx="1"/>
    <rect x="157" y="280" width="8" height="12" rx="1"/>
    <rect x="95" y="290" width="6" height="10" rx="1"/>
    <rect x="195" y="290" width="6" height="10" rx="1"/>
  </g>
  
  <!-- 魔法光效 -->
  <g opacity="0.6">
    <circle cx="150" cy="200" r="20" fill="none" stroke="#e74c3c" stroke-width="2" opacity="0.5">
      <animate attributeName="r" values="15;25;15" dur="3s" repeatCount="indefinite"/>
      <animate attributeName="opacity" values="0.3;0.7;0.3" dur="3s" repeatCount="indefinite"/>
    </circle>
    <circle cx="150" cy="200" r="10" fill="#e74c3c" opacity="0.3">
      <animate attributeName="opacity" values="0.2;0.5;0.2" dur="2s" repeatCount="indefinite"/>
    </circle>
  </g>
  
  <!-- 标题区域背景 -->
  <rect x="20" y="340" width="260" height="50" fill="#000000" opacity="0.3" rx="10"/>
  
  <!-- 标题文字 -->
  <text x="150" y="360" text-anchor="middle" fill="#ffffff" font-family="serif" font-size="20" font-weight="bold">
    奇幻小说
  </text>
  
  <!-- 副标题 -->
  <text x="150" y="380" text-anchor="middle" fill="#ecf0f1" font-family="serif" font-size="12">
    Fantasy Novel
  </text>
</svg>
