<?xml version="1.0" encoding="UTF-8"?>
<svg width="300" height="400" viewBox="0 0 300 400" xmlns="http://www.w3.org/2000/svg">
  <!-- 背景渐变和滤镜 -->
  <defs>
    <linearGradient id="bgGradient" x1="0%" y1="0%" x2="100%" y2="100%">
      <stop offset="0%" style="stop-color:#667eea;stop-opacity:1" />
      <stop offset="100%" style="stop-color:#764ba2;stop-opacity:1" />
    </linearGradient>
    <linearGradient id="shapeGradient" x1="0%" y1="0%" x2="100%" y2="100%">
      <stop offset="0%" style="stop-color:#ffffff;stop-opacity:0.3" />
      <stop offset="100%" style="stop-color:#ffffff;stop-opacity:0.1" />
    </linearGradient>
    <linearGradient id="accentGradient" x1="0%" y1="0%" x2="100%" y2="100%">
      <stop offset="0%" style="stop-color:#f093fb;stop-opacity:0.8" />
      <stop offset="100%" style="stop-color:#f5576c;stop-opacity:0.6" />
    </linearGradient>
    <filter id="blur" x="-50%" y="-50%" width="200%" height="200%">
      <feGaussianBlur in="SourceGraphic" stdDeviation="3"/>
    </filter>
  </defs>
  
  <!-- 背景 -->
  <rect width="300" height="400" fill="url(#bgGradient)"/>
  
  <!-- 背景几何图形 -->
  <g fill="url(#shapeGradient)">
    <!-- 大圆 - 背景装饰 -->
    <circle cx="220" cy="120" r="100" opacity="0.2"/>
    <!-- 中圆 -->
    <circle cx="100" cy="300" r="70" opacity="0.25"/>
    <!-- 小圆 -->
    <circle cx="250" cy="320" r="40" opacity="0.3"/>
  </g>
  
  <!-- 现代几何元素 -->
  <g fill="url(#accentGradient)">
    <!-- 浮动方块 -->
    <rect x="180" y="80" width="60" height="60" rx="8" opacity="0.4" transform="rotate(15 210 110)"/>
    <rect x="60" y="200" width="40" height="40" rx="6" opacity="0.5" transform="rotate(-20 80 220)"/>
    <rect x="200" y="250" width="30" height="30" rx="4" opacity="0.6" transform="rotate(30 215 265)"/>
    
    <!-- 三角形装饰 -->
    <polygon points="80,120 120,140 80,160" opacity="0.4"/>
    <polygon points="240,200 260,220 220,220" opacity="0.5"/>
  </g>
  
  <!-- 中央焦点区域 -->
  <g transform="translate(150, 200)">
    <!-- 主圆环 -->
    <circle cx="0" cy="0" r="50" fill="none" stroke="#ffffff" stroke-width="2" opacity="0.4"/>
    <circle cx="0" cy="0" r="35" fill="none" stroke="#ffffff" stroke-width="1" opacity="0.6"/>
    
    <!-- 中央图标 -->
    <rect x="-20" y="-15" width="40" height="30" fill="#ffffff" opacity="0.8" rx="4"/>
    <rect x="-15" y="-10" width="30" height="20" fill="none" stroke="#764ba2" stroke-width="2" rx="2"/>
    
    <!-- 书页线条 -->
    <g stroke="#764ba2" stroke-width="1" opacity="0.7">
      <line x1="-10" y1="-5" x2="10" y2="-5"/>
      <line x1="-10" y1="0" x2="5" y2="0"/>
      <line x1="-10" y1="5" x2="8" y2="5"/>
    </g>
  </g>
  
  <!-- 动态装饰线条 -->
  <g stroke="#ffffff" stroke-width="1" opacity="0.5" fill="none">
    <path d="M50 300 Q150 280 250 300" stroke-dasharray="5,5">
      <animate attributeName="stroke-dashoffset" values="0;10;0" dur="3s" repeatCount="indefinite"/>
    </path>
    <path d="M70 350 Q150 330 230 350" stroke-dasharray="3,3">
      <animate attributeName="stroke-dashoffset" values="0;6;0" dur="2s" repeatCount="indefinite"/>
    </path>
  </g>
  
  <!-- 底部现代装饰 -->
  <g transform="translate(150, 360)">
    <rect x="-30" y="-2" width="60" height="4" fill="#ffffff" opacity="0.6" rx="2"/>
    <rect x="-20" y="-8" width="40" height="2" fill="#ffffff" opacity="0.4" rx="1"/>
    <rect x="-25" y="4" width="50" height="2" fill="#ffffff" opacity="0.3" rx="1"/>
  </g>
</svg>
