<?xml version="1.0" encoding="UTF-8"?>
<svg width="300" height="400" viewBox="0 0 300 400" xmlns="http://www.w3.org/2000/svg">
  <!-- 背景渐变 -->
  <defs>
    <radialGradient id="bgGradient" cx="50%" cy="50%" r="70%">
      <stop offset="0%" style="stop-color:#0a0a23;stop-opacity:1" />
      <stop offset="70%" style="stop-color:#1a1a2e;stop-opacity:1" />
      <stop offset="100%" style="stop-color:#000000;stop-opacity:1" />
    </radialGradient>
    <linearGradient id="neonGradient" x1="0%" y1="0%" x2="100%" y2="100%">
      <stop offset="0%" style="stop-color:#00ffff;stop-opacity:1" />
      <stop offset="100%" style="stop-color:#0080ff;stop-opacity:1" />
    </linearGradient>
    <linearGradient id="planetGradient" x1="0%" y1="0%" x2="100%" y2="100%">
      <stop offset="0%" style="stop-color:#4a90e2;stop-opacity:1" />
      <stop offset="100%" style="stop-color:#2c5aa0;stop-opacity:1" />
    </linearGradient>
  </defs>
  
  <!-- 背景 -->
  <rect width="300" height="400" fill="url(#bgGradient)"/>
  
  <!-- 星空 -->
  <g fill="#ffffff">
    <circle cx="50" cy="50" r="0.5" opacity="0.8"/>
    <circle cx="80" cy="30" r="1" opacity="0.6"/>
    <circle cx="120" cy="60" r="0.5" opacity="0.9"/>
    <circle cx="180" cy="40" r="0.8" opacity="0.7"/>
    <circle cx="220" cy="70" r="0.5" opacity="0.8"/>
    <circle cx="260" cy="90" r="1" opacity="0.6"/>
    <circle cx="40" cy="120" r="0.5" opacity="0.7"/>
    <circle cx="90" cy="100" r="0.8" opacity="0.8"/>
    <circle cx="270" cy="130" r="0.5" opacity="0.9"/>
    <circle cx="30" cy="180" r="1" opacity="0.6"/>
    <circle cx="280" cy="200" r="0.5" opacity="0.8"/>
    <circle cx="60" cy="250" r="0.8" opacity="0.7"/>
    <circle cx="240" cy="280" r="0.5" opacity="0.9"/>
  </g>
  
  <!-- 行星 -->
  <g>
    <circle cx="220" cy="120" r="35" fill="url(#planetGradient)" opacity="0.8"/>
    <ellipse cx="220" cy="120" rx="50" ry="8" fill="none" stroke="url(#neonGradient)" stroke-width="1" opacity="0.6"/>
    <ellipse cx="220" cy="120" rx="60" ry="12" fill="none" stroke="url(#neonGradient)" stroke-width="0.5" opacity="0.4"/>
  </g>
  
  <!-- 太空船 -->
  <g transform="translate(80, 180)">
    <ellipse cx="0" cy="0" rx="40" ry="15" fill="#34495e" opacity="0.9"/>
    <ellipse cx="0" cy="0" rx="35" ry="12" fill="#5d6d7e"/>
    <rect x="-5" y="-8" width="10" height="16" fill="#2c3e50" rx="2"/>
    <circle cx="-20" cy="0" r="3" fill="url(#neonGradient)" opacity="0.8">
      <animate attributeName="opacity" values="0.4;1;0.4" dur="2s" repeatCount="indefinite"/>
    </circle>
    <circle cx="20" cy="0" r="3" fill="url(#neonGradient)" opacity="0.8">
      <animate attributeName="opacity" values="1;0.4;1" dur="2s" repeatCount="indefinite"/>
    </circle>
  </g>
  
  <!-- 能量场 -->
  <g opacity="0.4">
    <circle cx="150" cy="250" r="60" fill="none" stroke="url(#neonGradient)" stroke-width="2">
      <animate attributeName="r" values="50;70;50" dur="4s" repeatCount="indefinite"/>
      <animate attributeName="opacity" values="0.2;0.6;0.2" dur="4s" repeatCount="indefinite"/>
    </circle>
    <circle cx="150" cy="250" r="40" fill="none" stroke="#00ff00" stroke-width="1">
      <animate attributeName="r" values="35;50;35" dur="3s" repeatCount="indefinite"/>
      <animate attributeName="opacity" values="0.3;0.7;0.3" dur="3s" repeatCount="indefinite"/>
    </circle>
  </g>
  
  <!-- 科技线条 -->
  <g stroke="url(#neonGradient)" stroke-width="1" fill="none" opacity="0.6">
    <path d="M50 300 L100 320 L150 300 L200 320 L250 300"/>
    <path d="M30 350 L80 340 L130 350 L180 340 L230 350 L270 340"/>
    
    <!-- 电路图案 -->
    <rect x="60" y="330" width="20" height="10" rx="2"/>
    <rect x="120" y="325" width="15" height="8" rx="1"/>
    <rect x="200" y="335" width="18" height="12" rx="2"/>
    <circle cx="90" cy="335" r="4"/>
    <circle cx="180" cy="330" r="3"/>
  </g>
  
  <!-- 科技装饰元素 -->
  <g transform="translate(150, 370)">
    <!-- 全息投影效果 -->
    <rect x="-30" y="-8" width="60" height="16" fill="#00ffff" opacity="0.1" rx="8"/>
    <rect x="-30" y="-8" width="60" height="16" fill="none" stroke="url(#neonGradient)" stroke-width="1" rx="8"/>
    <!-- 中央指示器 -->
    <circle cx="0" cy="0" r="4" fill="url(#neonGradient)" opacity="0.8">
      <animate attributeName="opacity" values="0.4;1;0.4" dur="2s" repeatCount="indefinite"/>
    </circle>
    <circle cx="0" cy="0" r="8" fill="none" stroke="url(#neonGradient)" stroke-width="1" opacity="0.4">
      <animate attributeName="r" values="6;12;6" dur="3s" repeatCount="indefinite"/>
    </circle>
  </g>
  
  <!-- 扫描线效果 -->
  <g opacity="0.3">
    <line x1="0" y1="100" x2="300" y2="100" stroke="#00ffff" stroke-width="0.5">
      <animate attributeName="y1" values="0;400;0" dur="6s" repeatCount="indefinite"/>
      <animate attributeName="y2" values="0;400;0" dur="6s" repeatCount="indefinite"/>
    </line>
  </g>
</svg>
