<?xml version="1.0" encoding="UTF-8"?>
<svg width="300" height="400" viewBox="0 0 300 400" xmlns="http://www.w3.org/2000/svg">
  <!-- 背景渐变和滤镜 -->
  <defs>
    <!-- 主背景渐变 - 水墨画风格 -->
    <radialGradient id="bgGradient" cx="30%" cy="20%" r="80%">
      <stop offset="0%" style="stop-color:#f5f5dc;stop-opacity:1" />
      <stop offset="60%" style="stop-color:#e6ddd4;stop-opacity:1" />
      <stop offset="100%" style="stop-color:#d2b48c;stop-opacity:1" />
    </radialGradient>
    
    <!-- 山峰渐变 -->
    <linearGradient id="mountainGradient" x1="0%" y1="0%" x2="0%" y2="100%">
      <stop offset="0%" style="stop-color:#696969;stop-opacity:0.9" />
      <stop offset="100%" style="stop-color:#2f4f4f;stop-opacity:1" />
    </linearGradient>
    
    <!-- 剑光渐变 -->
    <linearGradient id="swordGradient" x1="0%" y1="0%" x2="100%" y2="100%">
      <stop offset="0%" style="stop-color:#c0c0c0;stop-opacity:1" />
      <stop offset="50%" style="stop-color:#ffffff;stop-opacity:0.9" />
      <stop offset="100%" style="stop-color:#708090;stop-opacity:1" />
    </linearGradient>
    
    <!-- 水墨效果滤镜 -->
    <filter id="inkWash" x="-20%" y="-20%" width="140%" height="140%">
      <feGaussianBlur in="SourceGraphic" stdDeviation="1.5"/>
      <feColorMatrix type="matrix" values="1 0 0 0 0  0 1 0 0 0  0 0 1 0 0  0 0 0 0.8 0"/>
    </filter>
  </defs>
  
  <!-- 背景 -->
  <rect width="300" height="400" fill="url(#bgGradient)"/>
  
  <!-- 远山剪影 -->
  <g fill="url(#mountainGradient)" opacity="0.6">
    <!-- 远山层次 -->
    <path d="M0,200 Q50,180 100,190 Q150,170 200,185 Q250,175 300,190 L300,400 L0,400 Z" opacity="0.3"/>
    <path d="M0,220 Q60,200 120,210 Q180,195 240,205 Q270,200 300,210 L300,400 L0,400 Z" opacity="0.4"/>
    <path d="M0,240 Q80,220 160,230 Q220,215 280,225 L300,225 L300,400 L0,400 Z" opacity="0.5"/>
  </g>
  
  <!-- 云雾缭绕 -->
  <g fill="#ffffff" opacity="0.3" filter="url(#inkWash)">
    <ellipse cx="80" cy="180" rx="40" ry="15" opacity="0.4"/>
    <ellipse cx="200" cy="160" rx="60" ry="20" opacity="0.3"/>
    <ellipse cx="250" cy="190" rx="30" ry="10" opacity="0.5"/>
  </g>
  
  <!-- 竹林剪影 -->
  <g fill="#2f4f4f" opacity="0.4">
    <!-- 竹子 -->
    <rect x="50" y="180" width="4" height="120" rx="2"/>
    <rect x="60" y="170" width="4" height="130" rx="2"/>
    <rect x="70" y="185" width="4" height="115" rx="2"/>
    <rect x="80" y="175" width="4" height="125" rx="2"/>
    
    <!-- 竹叶 -->
    <g stroke="#2f4f4f" stroke-width="1" fill="none" opacity="0.6">
      <path d="M52,200 Q48,195 52,190"/>
      <path d="M62,180 Q58,175 62,170"/>
      <path d="M72,210 Q68,205 72,200"/>
      <path d="M82,190 Q78,185 82,180"/>
    </g>
  </g>
  
  <!-- 飞鸟 -->
  <g fill="#2f4f4f" opacity="0.5">
    <path d="M180,100 Q185,95 190,100 Q185,105 180,100" transform="scale(0.8)"/>
    <path d="M200,80 Q205,75 210,80 Q205,85 200,80" transform="scale(0.6)"/>
    <path d="M220,90 Q225,85 230,90 Q225,95 220,90" transform="scale(0.7)"/>
  </g>
  
  <!-- 中央剑影 -->
  <g transform="translate(150, 150) rotate(-15)">
    <!-- 剑身 -->
    <rect x="-2" y="-60" width="4" height="120" fill="url(#swordGradient)" rx="2"/>
    <!-- 剑锋 -->
    <polygon points="0,-65 -3,-60 3,-60" fill="url(#swordGradient)"/>
    <!-- 护手 -->
    <rect x="-8" y="58" width="16" height="4" fill="#8b4513" rx="2"/>
    <!-- 剑柄 -->
    <rect x="-3" y="60" width="6" height="20" fill="#654321" rx="3"/>
    <!-- 剑首 -->
    <circle cx="0" cy="82" r="4" fill="#8b4513"/>
    
    <!-- 剑光效果 -->
    <rect x="-1" y="-55" width="2" height="100" fill="#ffffff" opacity="0.6"/>
    <rect x="0" y="-50" width="1" height="80" fill="#ffffff" opacity="0.8"/>
  </g>
  
  <!-- 水墨印章效果 -->
  <g transform="translate(220, 320)">
    <!-- 印章背景 -->
    <circle cx="0" cy="0" r="25" fill="#dc143c" opacity="0.8"/>
    <circle cx="0" cy="0" r="20" fill="none" stroke="#8b0000" stroke-width="2"/>
    
    <!-- 印章文字（装饰性方块代替） -->
    <g fill="#ffffff" opacity="0.9">
      <rect x="-8" y="-8" width="6" height="6" rx="1"/>
      <rect x="2" y="-8" width="6" height="6" rx="1"/>
      <rect x="-8" y="2" width="6" height="6" rx="1"/>
      <rect x="2" y="2" width="6" height="6" rx="1"/>
    </g>
  </g>
  
  <!-- 书法笔触装饰 -->
  <g stroke="#2f4f4f" stroke-width="3" fill="none" opacity="0.4">
    <!-- 飘逸的笔画 -->
    <path d="M60,120 Q80,110 100,120 Q120,130 140,120" stroke-linecap="round"/>
    <path d="M180,280 Q200,270 220,280 Q240,290 260,280" stroke-linecap="round"/>
    
    <!-- 点缀笔画 -->
    <circle cx="70" cy="100" r="2" fill="#2f4f4f" opacity="0.6"/>
    <circle cx="230" cy="260" r="2" fill="#2f4f4f" opacity="0.6"/>
  </g>
  
  <!-- 古典边框 -->
  <g fill="none" stroke="#8b4513" stroke-width="1" opacity="0.3">
    <rect x="20" y="20" width="260" height="360" rx="8"/>
    <rect x="25" y="25" width="250" height="350" rx="6"/>
  </g>
  
  <!-- 角落装饰 -->
  <g fill="#8b4513" opacity="0.4">
    <!-- 左上角 -->
    <path d="M30,30 L45,30 L45,35 L35,35 L35,45 L30,45 Z"/>
    <!-- 右上角 -->
    <path d="M270,30 L270,45 L265,45 L265,35 L255,35 L255,30 Z"/>
    <!-- 左下角 -->
    <path d="M30,370 L30,355 L35,355 L35,365 L45,365 L45,370 Z"/>
    <!-- 右下角 -->
    <path d="M270,370 L255,370 L255,365 L265,365 L265,355 L270,355 Z"/>
  </g>
  
  <!-- 底部装饰元素 -->
  <g transform="translate(150, 350)">
    <!-- 太极图案装饰 -->
    <circle cx="0" cy="0" r="12" fill="none" stroke="#2f4f4f" stroke-width="2" opacity="0.5"/>
    <path d="M-12,0 A12,12 0 0,1 12,0 A6,6 0 0,1 0,0 A6,6 0 0,0 -12,0" fill="#2f4f4f" opacity="0.5"/>
    <circle cx="-6" cy="0" r="2" fill="#f5f5dc"/>
    <circle cx="6" cy="0" r="2" fill="#2f4f4f"/>
  </g>
</svg>
